<svg width="128" height="128" viewBox="0 0 128 128" fill="none" xmlns="http://www.w3.org/2000/svg">
<path fill-rule="evenodd" clip-rule="evenodd" d="M116.5 63.8635C116.5 36.6317 95.7415 14.167 69.25 11.521V1C101.579 3.68275 127 30.7728 127 63.8687C127 73.492 124.785 82.5797 120.941 90.733L111.817 85.4568C114.799 78.8575 116.5 71.5652 116.5 63.8635ZM11.5 63.8687C11.5 71.5652 13.1957 78.8575 16.1778 85.4568L7.05325 90.7383C3.21024 82.5745 1 73.492 1 63.8687C1 30.7728 26.4205 3.68275 58.75 1V11.5262C32.2585 14.1723 11.5 36.6317 11.5 63.8687ZM64 116.474C81.5088 116.474 97.0067 107.806 106.546 94.5602L115.718 99.868C104.336 116.253 85.4305 127 64 127C42.5642 127 23.659 116.253 12.2823 99.8575L21.4488 94.555C30.988 107.806 46.4912 116.474 64 116.474ZM22 63.8687C22 40.6218 40.8003 21.7795 64 21.7795C87.1997 21.7795 106 40.6218 106 63.8687C106 87.1158 87.1997 105.958 64 105.958C40.8003 105.958 22 87.1158 22 63.8687ZM54 79H61.5V49H54V79ZM66.5 79H74V64V49H66.5V79Z" fill="#000357"/>
</svg>
