<svg width="128" height="128" viewBox="0 0 128 128" fill="none" xmlns="http://www.w3.org/2000/svg">
<path d="M69.25 11.521C95.7415 14.167 116.5 36.6318 116.5 63.8635C116.5 71.5652 114.799 78.8575 111.817 85.4567L120.942 90.733C124.785 82.5797 127 73.492 127 63.8688C127 30.7728 101.579 3.68275 69.25 1V11.521ZM16.1778 85.4567C13.1958 78.8575 11.5 71.5653 11.5 63.8688C11.5 36.6318 32.2585 14.1723 58.75 11.5263V1C26.4205 3.68275 1 30.7728 1 63.8688C1 73.492 3.21025 82.5745 7.05325 90.7383L16.1778 85.4567ZM106.546 94.5602C97.0068 107.806 81.5088 116.474 64 116.474C46.4912 116.474 30.988 107.806 21.4487 94.555L12.2822 99.8575C23.659 116.253 42.5642 127 64 127C85.4305 127 104.336 116.253 115.718 99.868L106.546 94.5602ZM64 21.7795C40.8002 21.7795 22 40.6218 22 63.8688C22 87.1158 40.8002 105.958 64 105.958C87.1998 105.958 106 87.1158 106 63.8688C106 40.6218 87.1998 21.7795 64 21.7795ZM53.5 79.6502V48.082L85 64.63L53.5 79.6502Z" fill="#000357"/>
</svg>
