<svg width="128" height="128" viewBox="0 0 128 128" fill="none" xmlns="http://www.w3.org/2000/svg">
<path d="M127 72.484V55.516C118.332 52.4342 112.862 51.568 110.1 44.9162C107.334 38.2435 110.625 33.7075 114.547 25.4493L102.551 13.453C94.3555 17.3485 89.7775 20.6718 83.089 17.8998C76.4267 15.1383 75.55 9.62575 72.484 1H55.516C52.4605 9.58375 51.5837 15.133 44.9162 17.8998C38.2435 20.6718 33.718 17.3852 25.4493 13.453L13.453 25.4493C17.3642 33.6813 20.6718 38.2278 17.8998 44.911C15.133 51.5838 9.58375 52.4605 1 55.516V72.484C9.568 75.529 15.133 76.4163 17.8998 83.0838C20.6823 89.8143 17.3012 94.4552 13.453 102.545L25.4493 114.547C33.6498 110.646 38.2278 107.328 44.911 110.1C51.5785 112.862 52.4552 118.39 55.516 127H72.484C75.5395 118.411 76.4162 112.877 83.1257 110.084H83.131C89.7565 107.333 94.261 110.615 102.545 114.552L114.542 102.551C110.641 94.345 107.323 89.7775 110.09 83.0943C112.856 76.4215 118.427 75.5343 127 72.484ZM64 90.25C49.4995 90.25 37.75 78.4952 37.75 64C37.75 49.5048 49.4995 37.75 64 37.75C78.5005 37.75 90.25 49.5048 90.25 64C90.25 78.4952 78.5005 90.25 64 90.25ZM79.75 64C79.75 72.6835 72.6835 79.75 64 79.75C55.3165 79.75 48.25 72.6835 48.25 64C48.25 55.3165 55.3165 48.25 64 48.25C72.6835 48.25 79.75 55.3165 79.75 64Z" fill="#000357"/>
</svg>
